<svg xmlns="http://www.w3.org/2000/svg" viewBox="0 0 128 128">
  <rect width="128" height="128" style="fill: #020817"/>
  <rect x="108.31" y="78.77" width="9.84" height="29.54" style="fill: #fff"/>
  <polygon points="39.38 108.31 59.08 108.31 59.08 118.15 9.85 118.15 9.85 108.31 29.54 108.31 29.54 78.77 9.85 78.77 9.85 68.92 59.08 68.92 59.08 78.77 39.38 78.77 39.38 108.31" style="fill: #fff"/>
  <polygon points="78.77 108.31 108.31 108.31 108.31 118.15 68.92 118.15 68.92 68.92 108.31 68.92 108.31 78.77 78.77 78.77 78.77 108.31" style="fill: #fff"/>
  <polygon points="59.08 9.85 59.08 59.08 9.85 59.08 9.85 9.85 19.69 9.85 19.69 49.23 49.23 49.23 49.23 9.85 59.08 9.85" style="fill: #fff"/>
  <polygon points="118.15 9.85 118.15 59.08 68.92 59.08 68.92 9.85 78.77 9.85 78.77 49.23 108.31 49.23 108.31 9.85 118.15 9.85" style="fill: #fff"/>
</svg>
